<?xml version="1.0" encoding="UTF-8" standalone="no"?>
<svg
   xmlns:dc="http://purl.org/dc/elements/1.1/"
   xmlns:cc="http://creativecommons.org/ns#"
   xmlns:rdf="http://www.w3.org/1999/02/22-rdf-syntax-ns#"
   xmlns:svg="http://www.w3.org/2000/svg"
   xmlns="http://www.w3.org/2000/svg"
   xmlns:sodipodi="http://sodipodi.sourceforge.net/DTD/sodipodi-0.dtd"
   xmlns:inkscape="http://www.inkscape.org/namespaces/inkscape"
   version="1.1"
   id="svg2"
   xml:space="preserve"
   width="640"
   height="640"
   viewBox="0 0 639.99997 639.99995"
   sodipodi:docname="viash.svg"
   inkscape:version="1.0.2 (e86c870879, 2021-01-15)"><metadata
     id="metadata8"><rdf:RDF><cc:Work
         rdf:about=""><dc:format>image/svg+xml</dc:format><dc:type
           rdf:resource="http://purl.org/dc/dcmitype/StillImage" /><dc:title /></cc:Work></rdf:RDF></metadata><defs
     id="defs6"><clipPath
       clipPathUnits="userSpaceOnUse"
       id="clipPath18"><path
         d="M 0,566.929 H 1133.858 V 0 H 0 Z"
         id="path16" /></clipPath></defs><sodipodi:namedview
     pagecolor="#ffffff"
     bordercolor="#666666"
     borderopacity="1"
     objecttolerance="10"
     gridtolerance="10"
     guidetolerance="10"
     inkscape:pageopacity="0"
     inkscape:pageshadow="2"
     inkscape:window-width="3840"
     inkscape:window-height="2096"
     id="namedview4"
     showgrid="true"
     fit-margin-top="0"
     fit-margin-left="0"
     fit-margin-right="0"
     fit-margin-bottom="0"
     inkscape:zoom="2.8284271"
     inkscape:cx="367.7656"
     inkscape:cy="311.72873"
     inkscape:window-x="0"
     inkscape:window-y="27"
     inkscape:window-maximized="1"
     inkscape:current-layer="text951"
     units="px"
     inkscape:snap-global="true"
     inkscape:document-rotation="0"><inkscape:grid
       type="xygrid"
       id="grid942"
       spacingx="9.9999994"
       spacingy="9.9999994" /></sodipodi:namedview><g
     inkscape:groupmode="layer"
     id="layer2"
     inkscape:label="Background"
     style="display:inline"><rect
       style="opacity:1;fill:#ffffff;fill-opacity:1;stroke-width:26.6667;stroke-linejoin:round;paint-order:markers stroke fill;stop-color:#000000"
       id="rect953"
       width="639.99994"
       height="639.99994"
       x="0"
       y="0" /></g><g
     id="g10"
     inkscape:groupmode="layer"
     inkscape:label="PDF"
     transform="matrix(1.3333333,0,0,-1.3333333,-193.72466,537.36291)"
     style="display:none;opacity:1"><g
       id="g922"
       transform="matrix(2.0002751,0,0,2.0002751,-145.33347,-403.13306)"
       style="opacity:1"><path
         d="m 145.2935,163.0561 c 0.002,0.616 0.006,1.232 0.006,1.848 0,78.753 0,157.507 0.003,236.261 0,2.062 -0.205,1.851 1.888,1.851 44.509,0.003 89.017,0.002 133.525,0.002 h 1.6 c -0.521,-1.494 -0.978,-2.837 -1.457,-4.171 -12.582,-35.04 -25.167,-70.078 -37.75,-105.118 -7.52,-20.939 -15.044,-41.877 -22.536,-62.826 -0.338,-0.946 -0.734,-1.311 -1.79,-1.297 -4.891,0.068 -9.784,0.05 -14.676,0.011 -0.796,-0.006 -1.121,0.272 -1.372,0.998 -6.996,20.288 -14.014,40.567 -21.027,60.849 -2.431,7.029 -4.859,14.06 -7.287,21.091 -0.129,0.375 -0.245,0.755 -0.366,1.133 0.068,0.07 0.135,0.14 0.203,0.21 3.979,-2.31 7.957,-4.62 12.038,-6.989 1.788,3.921 3.512,7.702 5.367,11.769 6.859,-20.592 13.632,-40.927 20.406,-61.263 0.109,-0.009 0.218,-0.018 0.328,-0.027 14.9,42.807 29.802,85.614 44.759,128.585 -0.536,0.036 -0.891,0.081 -1.246,0.081 -30.79,0.003 -61.579,0.003 -92.369,0.002 -1.258,0 -1.261,-0.005 -1.261,-1.446 -0.001,-36.263 -0.001,-72.527 -0.001,-108.791 v -94.115 c 0,-0.376 0.025,-0.754 -0.003,-1.128 -0.051,-0.684 0.188,-1.049 0.929,-0.966 0.236,0.027 0.479,0.003 0.718,0.003 67.156,0 134.311,0 201.467,0.002 1.849,10e-4 1.67,-0.19 1.67,1.628 0.003,27.643 0.002,55.286 0.002,82.928 0,1.525 -0.001,1.529 -1.499,1.529 -9.682,0.002 -19.363,0.002 -29.045,0 -1.553,0 -1.555,-0.004 -1.556,-1.614 0,-11.016 0,-22.031 -10e-4,-33.048 0,-1.462 -0.002,-1.465 -1.456,-1.465 -5.098,-0.001 -10.195,0.024 -15.292,-0.022 -0.992,-0.009 -1.26,0.28 -1.259,1.268 0.026,27.3 0.026,54.601 0.002,81.902 -10e-4,0.931 0.238,1.234 1.193,1.227 5.166,-0.041 10.332,-0.045 15.498,0.002 1.026,0.009 1.341,-0.272 1.337,-1.322 -0.037,-9.75 -0.023,-19.5 -0.022,-29.25 10e-4,-1.545 0.004,-1.546 1.569,-1.546 h 28.84 1.494 v 1.356 c 0,9.921 0.009,19.843 -0.017,29.764 -0.002,0.751 0.221,1.272 0.756,1.787 2.804,2.7 5.577,5.434 8.683,8.471 0.366,-0.529 0.637,-1.063 1.037,-1.471 2.229,-2.27 4.461,-4.539 6.757,-6.741 0.71,-0.682 0.94,-1.38 0.94,-2.335 -0.02,-43.653 -0.025,-87.306 -0.01,-130.96 0.002,-6.014 0.111,-12.028 0.175,-18.042 0.002,-0.202 0.049,-0.403 0.075,-0.605 z"
         style="fill:#faa9a9;fill-opacity:1;fill-rule:nonzero;stroke:none"
         id="path918" /><path
         d="m 254.4263,250.9643 c 1.965,-1.099 3.745,-2.183 5.603,-3.115 5.026,-2.521 10.375,-3.767 15.999,-3.699 2.64,0.032 5.229,0.456 7.657,1.592 6.173,2.889 7.043,10.734 1.63,14.879 -2.858,2.187 -6.151,3.531 -9.511,4.706 -5.047,1.765 -9.952,3.811 -14.287,7.018 -4.666,3.453 -8.048,7.827 -9.174,13.618 -1.959,10.066 2.384,19.418 11.289,24.641 4.221,2.475 8.789,3.866 13.647,4.315 6.871,0.635 13.655,0.211 20.203,-2.1 2.272,-0.801 4.41,-1.988 6.585,-3.049 0.221,-0.108 0.456,-0.626 0.379,-0.846 -1.671,-4.729 -3.385,-9.441 -5.096,-14.156 -0.031,-0.087 -0.128,-0.151 -0.277,-0.319 -0.977,0.494 -1.983,0.978 -2.965,1.504 -4.579,2.455 -9.488,3.61 -14.657,3.597 -2.674,-0.007 -5.311,-0.394 -7.691,-1.777 -4.656,-2.705 -5.145,-8.55 -0.945,-11.919 1.111,-0.892 2.334,-1.711 3.628,-2.292 3.142,-1.409 6.349,-2.677 9.543,-3.968 4.451,-1.799 8.759,-3.85 12.504,-6.921 5.503,-4.511 8.297,-10.299 8.529,-17.436 0.394,-12.098 -7.189,-20.798 -17.364,-24.392 -5.259,-1.858 -10.685,-2.442 -16.221,-2.299 -6.653,0.171 -13.089,1.376 -19.164,4.164 -1.482,0.68 -2.859,1.599 -4.247,2.466 -0.224,0.14 -0.426,0.641 -0.35,0.884 1.548,4.941 3.138,9.869 4.753,14.904"
         style="fill:#faa9a9;fill-opacity:1;fill-rule:nonzero;stroke:none"
         id="path920" /></g></g><g
     inkscape:groupmode="layer"
     id="g2016"
     inkscape:label="Compare"
     style="display:none"><g
       aria-label="VSH"
       id="g2014"
       style="font-style:normal;font-variant:normal;font-weight:bold;font-stretch:normal;font-size:320px;line-height:1.25;font-family:'Open Sans';-inkscape-font-specification:'Open Sans Bold';letter-spacing:-18px;word-spacing:0px;fill:#2926ff;fill-opacity:0.373806"
       transform="matrix(1.0034828,0,0,1.0034828,-2.2289609,-0.83857653)"><path
         d="m 428.71219,405.55786 q 0,31.03945 -22.41738,48.91065 -22.26062,17.8712 -62.0789,17.8712 -36.68299,0 -64.90068,-13.79531 v -45.1483 q 23.20121,10.34649 39.19123,14.57914 16.14679,4.23265 29.4718,4.23265 15.99003,0 24.45533,-6.11383 8.62207,-6.11383 8.62207,-18.18473 0,-6.74089 -3.76236,-11.91413 -3.76236,-5.33001 -11.13031,-10.18972 -7.21118,-4.85971 -29.62856,-15.51973 -21.0065,-9.87619 -31.50975,-18.96855 -10.50325,-9.09237 -16.77385,-21.16326 -6.27059,-12.0709 -6.27059,-28.21769 0,-30.41239 20.5362,-47.81329 20.69297,-17.40091 57.06243,-17.40091 17.8712,0 34.01798,4.23265 16.30355,4.23266 34.01799,11.91414 l -15.67649,37.78034 q -18.3415,-7.52472 -30.41239,-10.50325 -11.91414,-2.97853 -23.51474,-2.97853 -13.79531,0 -21.16326,6.42736 -7.36796,6.42736 -7.36796,16.77384 0,6.42737 2.97854,11.28708 2.97853,4.70294 9.40589,9.24913 6.58413,4.38941 30.88269,15.99002 32.13681,15.36296 44.05094,30.88269 11.91413,15.36296 11.91413,37.78034 z"
         style="font-style:normal;font-variant:normal;font-weight:bold;font-stretch:normal;font-size:320px;font-family:'Open Sans';-inkscape-font-specification:'Open Sans Bold';fill:#2926ff;fill-opacity:0.373806;stroke-width:1.0033"
         id="path2010" /><path
         id="path2012"
         style="font-style:normal;font-variant:normal;font-weight:bold;font-stretch:normal;font-size:320px;font-family:'Open Sans';-inkscape-font-specification:'Open Sans Bold';fill:#2926ff;fill-opacity:0.373806;stroke-width:1.00679"
         d="M 0,0 V 640 H 640 V 240.00586 L 615,215 l -25,25 -4e-5,89.99998 h -90 L 500,240.01172 H 450 V 470 h 50 l -4e-5,-100.00002 h 90 L 590,590 H 50 V 50 H 283.89258 L 175,385.14062 123.38867,226.29492 107.33789,257.79688 75.835938,241.74609 125.2793,393.91602 150,470 h 50 L 352.71289,0 Z"
         transform="matrix(0.99652929,0,0,0.99652929,2.2212248,0.83566607)"
         sodipodi:nodetypes="ccccccccccccccccccccccccccc" /></g></g><g
     inkscape:groupmode="layer"
     id="layer1"
     inkscape:label="Layer"
     style="display:inline"><g
       aria-label="VSH"
       id="text951"
       style="font-style:normal;font-variant:normal;font-weight:bold;font-stretch:normal;font-size:320px;line-height:1.25;font-family:'Open Sans';-inkscape-font-specification:'Open Sans Bold';letter-spacing:-18px;word-spacing:0px;fill:#ff0909;fill-opacity:0.262046"
       transform="matrix(1.0034828,0,0,1.0034828,-2.2289609,-0.83857653)"><path
         d="m 428.71219,405.55786 q 0,31.03945 -22.41738,48.91065 -22.26062,17.8712 -62.0789,17.8712 -36.68299,0 -64.90068,-13.79531 v -45.1483 q 23.20121,10.34649 39.19123,14.57914 16.14679,4.23265 29.4718,4.23265 15.99003,0 24.45533,-6.11383 8.62207,-6.11383 8.62207,-18.18473 0,-6.74089 -3.76236,-11.91413 -3.76236,-5.33001 -11.13031,-10.18972 -7.21118,-4.85971 -29.62856,-15.51973 -21.0065,-9.87619 -31.50975,-18.96855 -10.50325,-9.09237 -16.77385,-21.16326 -6.27059,-12.0709 -6.27059,-28.21769 0,-30.41239 20.5362,-47.81329 20.69297,-17.40091 57.06243,-17.40091 17.8712,0 34.01798,4.23265 16.30355,4.23266 34.01799,11.91414 l -15.67649,37.78034 q -18.3415,-7.52472 -30.41239,-10.50325 -11.91414,-2.97853 -23.51474,-2.97853 -13.79531,0 -21.16326,6.42736 -7.36796,6.42736 -7.36796,16.77384 0,6.42737 2.97854,11.28708 2.97853,4.70294 9.40589,9.24913 6.58413,4.38941 30.88269,15.99002 32.13681,15.36296 44.05094,30.88269 11.91413,15.36296 11.91413,37.78034 z"
         style="font-style:normal;font-variant:normal;font-weight:bold;font-stretch:normal;font-size:320px;font-family:'Open Sans';-inkscape-font-specification:'Open Sans Bold';fill:#6d4da7;fill-opacity:1;stroke-width:1.0033"
         id="path961" /><path
         id="path963"
         style="font-style:normal;font-variant:normal;font-weight:bold;font-stretch:normal;font-size:320px;font-family:'Open Sans';-inkscape-font-specification:'Open Sans Bold';fill:#6d4da7;fill-opacity:1;stroke-width:1.00679"
         d="M 0,0 V 640 H 640 V 240.00586 L 615,215 l -25,25 -4e-5,89.99998 h -90 L 500,240.01172 H 450 V 470 h 50 l -4e-5,-100.00002 h 90 L 590,590 H 50 V 50 H 283.89258 L 175,385.14062 123.38867,226.29492 107.33789,257.79688 75.835938,241.74609 125.2793,393.91602 150,470 h 50 L 352.71289,0 Z"
         transform="matrix(0.99652929,0,0,0.99652929,2.2212248,0.83566607)"
         sodipodi:nodetypes="ccccccccccccccccccccccccccc" /></g></g></svg>
